<?xml version="1.0" encoding="UTF-8" standalone="no"?>
<!-- Created with Inkscape (http://www.inkscape.org/) -->

<svg
   width="210mm"
   height="297mm"
   viewBox="0 0 793.70081 1122.5197"
   version="1.1"
   id="svg1"
   xml:space="preserve"
   inkscape:version="1.4.2 (ebf0e940d0, 2025-05-08)"
   sodipodi:docname="bio-debugger.svg"
   xmlns:inkscape="http://www.inkscape.org/namespaces/inkscape"
   xmlns:sodipodi="http://sodipodi.sourceforge.net/DTD/sodipodi-0.dtd"
   xmlns="http://www.w3.org/2000/svg"
   xmlns:svg="http://www.w3.org/2000/svg"><sodipodi:namedview
     id="namedview1"
     pagecolor="#ffffff"
     bordercolor="#000000"
     borderopacity="0.25"
     inkscape:showpageshadow="2"
     inkscape:pageopacity="0.0"
     inkscape:pagecheckerboard="0"
     inkscape:deskcolor="#d1d1d1"
     inkscape:document-units="mm"
     inkscape:zoom="1.0110244"
     inkscape:cx="385.2528"
     inkscape:cy="925.79363"
     inkscape:window-width="1920"
     inkscape:window-height="1256"
     inkscape:window-x="0"
     inkscape:window-y="0"
     inkscape:window-maximized="1"
     inkscape:current-layer="g1" /><defs
     id="defs1"><rect
       x="536.41022"
       y="1038.8798"
       width="222.82791"
       height="19.183859"
       id="rect109" /><rect
       x="249.5743"
       y="566.90632"
       width="125.3518"
       height="24.8445"
       id="rect51" /><rect
       x="420.09791"
       y="392.99482"
       width="90.343637"
       height="35.008159"
       id="rect21" /></defs><g
     inkscape:label="Layer 1"
     inkscape:groupmode="layer"
     id="layer1"><g
       id="g1"
       transform="matrix(3.7795276,0,0,3.7795276,-2.3203457,0.4338737)"><rect
         x="30"
         y="12"
         width="168"
         height="24"
         rx="2"
         ry="2"
         fill="#ffffff"
         stroke="#000000"
         stroke-width="0.6"
         id="rect2" /><text
         x="34"
         y="16"
         font-family="sans-serif"
         font-size="4.4px"
         font-weight="800"
         text-anchor="start"
         dominant-baseline="hanging"
         id="text2" /><text
         x="34"
         y="22"
         font-family="sans-serif"
         font-size="8px"
         font-weight="900"
         text-anchor="start"
         dominant-baseline="hanging"
         id="text3"
         style="white-space:pre;inline-size:64.0741;display:inline"
         transform="matrix(1.3191863,0,0,1.6230906,-11.048953,-16.88775)"
         xml:space="preserve"><tspan
           x="34"
           y="22"
           id="tspan1">BIO-DEBUGGER</tspan></text><text
         x="34"
         y="30"
         font-family="sans-serif"
         font-size="3.2px"
         font-weight="400"
         dominant-baseline="hanging"
         id="text4"
         style="font-size:2.82222px">Access-First Protocol for Technical Overwhelm • Educational (not medical advice) • Use what helps; skip what doesn’t</text><rect
         x="30"
         y="41"
         width="168"
         height="34"
         rx="2"
         ry="2"
         fill="#ffffff"
         stroke="#000000"
         stroke-width="0.6"
         id="rect4"
         style="stroke-width:0.57818937;stroke-dasharray:none" /><text
         x="34"
         y="45"
         font-family="sans-serif"
         font-size="4.4px"
         font-weight="800"
         text-anchor="start"
         dominant-baseline="hanging"
         id="text5">1) STATE CHECK</text><text
         x="34"
         y="53"
         font-family="sans-serif"
         font-size="3.4px"
         font-weight="400"
         dominant-baseline="hanging"
         id="text6"><tspan
           sodipodi:role="line"
           id="tspan27"
           x="34"
           y="53"><tspan
   style="font-weight:bold"
   id="tspan97">GREEN (1):</tspan> I can think clearly. I’m learning.</tspan><tspan
           sodipodi:role="line"
           id="tspan28"
           x="34"
           y="57.25" /><tspan
           sodipodi:role="line"
           x="34"
           y="61.5"
           id="tspan29"><tspan
   style="font-weight:bold"
   id="tspan98">YELLOW (2)</tspan>: I’m strained; I can continue only if I simplify.</tspan><tspan
           sodipodi:role="line"
           x="34"
           y="65.75"
           id="tspan30"
           style="font-weight:bold" /><tspan
           sodipodi:role="line"
           x="34"
           y="70"
           id="tspan31"><tspan
   style="font-weight:bold"
   id="tspan100">RED (3):</tspan> I’m flooded (panic/anger/shutdown/tears/urge to quit)</tspan></text><rect
         x="30"
         y="80"
         width="168"
         height="50"
         rx="2"
         ry="2"
         fill="#ffffff"
         stroke="#000000"
         stroke-width="1.2"
         id="rect6" /><text
         x="34"
         y="84"
         font-family="sans-serif"
         font-size="4.4px"
         font-weight="800"
         text-anchor="start"
         dominant-baseline="hanging"
         id="text7">2) RED TRACK — 90-SECOND RESET</text><text
         x="34"
         y="92"
         font-family="sans-serif"
         font-size="3.4px"
         font-weight="400"
         dominant-baseline="hanging"
         id="text8"
         style="white-space:pre;inline-size:165.514;display:inline"
         transform="matrix(1,0,0,1.0359049,0,-3.291398)"
         xml:space="preserve"><tspan
           x="34"
           y="92"
           id="tspan3"><tspan
   style="font-weight:bold"
   id="tspan2">A. PAUSE (20 sec)</tspan>
</tspan><tspan
           x="34"
           y="96.250001"
           id="tspan4">Pause → Step back → Observe (body + urge) → Prepare to proceed with a deliberate action.
</tspan><tspan
           x="34"
           y="100.58537"
           id="tspan6"><tspan
   style="font-weight:bold"
   id="tspan5">B. EXHALE RESET (45 sec)</tspan>
</tspan><tspan
           x="34"
           y="104.83537"
           id="tspan7">Inhale 2–3 sec → Exhale 6–8 sec × 5 rounds.
</tspan><tspan
           x="34"
           y="109.17075"
           id="tspan9"><tspan
   style="font-weight:bold"
   id="tspan8">C. ORIENT (30 sec)</tspan>
</tspan><tspan
           x="34"
           y="113.42075"
           id="tspan10">Name 5 things you see → feel feet/hands → turn your head slowly and re-locate yourself in the room.
</tspan><tspan
           x="34"
           y="117.75612"
           id="tspan11">
</tspan><tspan
           x="34"
           y="122.00612"
           id="tspan13"><tspan
             style="font-weight:bold"
             id="tspan12">If you’re still RED after 2 rounds: STOP RULES (Block 5). Do not continue.</tspan></tspan></text><rect
         x="30"
         y="135"
         width="168"
         height="36"
         rx="2"
         ry="2"
         fill="#ffffff"
         stroke="#000000"
         stroke-width="0.6"
         id="rect8" /><text
         x="34"
         y="139"
         font-family="sans-serif"
         font-size="4.4px"
         font-weight="800"
         text-anchor="start"
         dominant-baseline="hanging"
         id="text9"><tspan
           sodipodi:role="line"
           id="tspan50"
           x="34"
           y="139">3) YELLOW TRACK — REDUCE LOAD</tspan></text><text
         x="32.638714"
         y="151.17354"
         font-family="sans-serif"
         font-size="3.45466px"
         font-weight="400"
         dominant-baseline="hanging"
         id="text10"
         transform="scale(1.0411658,0.96046184)"
         style="stroke-width:1.01608"><tspan
           sodipodi:role="line"
           id="tspan52"
           x="32.638714"
           y="151.17354"
           style="stroke-width:1.01608">☐ Close extra tabs/windows (leave only what you’re using).</tspan><tspan
           sodipodi:role="line"
           x="32.638714"
           y="155.57861"
           id="tspan55"
           style="stroke-width:1.01608">☐ Turn off notifications / mute chat for 10 minutes.</tspan><tspan
           sodipodi:role="line"
           x="32.638714"
           y="159.98367"
           id="tspan57"
           style="stroke-width:1.01608">☐ Reduce sensory intensity (brightness/audio).</tspan><tspan
           sodipodi:role="line"
           x="32.638714"
           y="164.38875"
           id="tspan59"
           style="stroke-width:1.01608">☐ Write the goal in one sentence: “I am trying to ____.”</tspan><tspan
           sodipodi:role="line"
           x="32.638714"
           y="168.79382"
           id="tspan61"
           style="stroke-width:1.01608">☐ Make the next step “tiny” (Block 4), maybe research one thing.</tspan><tspan
           sodipodi:role="line"
           x="32.638714"
           y="173.19888"
           id="tspan62"
           style="stroke-width:1.01608">☐ Set a timer: 5 minutes (then reassess state).</tspan></text><rect
         x="30"
         y="176"
         width="168"
         height="36"
         rx="2"
         ry="2"
         fill="#ffffff"
         stroke="#000000"
         stroke-width="0.6"
         id="rect10" /><text
         x="34"
         y="180"
         font-family="sans-serif"
         font-size="4.4px"
         font-weight="800"
         text-anchor="start"
         dominant-baseline="hanging"
         id="text11">4) NEXT TINY STEP</text><text
         x="34"
         y="188"
         font-family="sans-serif"
         font-size="3.4px"
         font-weight="400"
         dominant-baseline="hanging"
         id="text12"><tspan
           sodipodi:role="line"
           id="tspan63"
           x="34"
           y="188">☐ Reproduce once (same steps, observe exactly what happens and collect info/errors).</tspan><tspan
           sodipodi:role="line"
           id="tspan64"
           x="34"
           y="192.33537"></tspan><tspan
           sodipodi:role="line"
           x="34"
           y="196.58537"
           id="tspan65">☐ Single-variable change (research and change ONE thing → test once).</tspan><tspan
           sodipodi:role="line"
           x="34"
           y="200.92075"
           id="tspan66"></tspan><tspan
           sodipodi:role="line"
           x="34"
           y="205.17075"
           id="tspan67">☐ Return to known-good (revert preset/file/version/settings).</tspan></text><rect
         x="30"
         y="217"
         width="168"
         height="50"
         rx="2"
         ry="2"
         fill="#ffffff"
         stroke="#000000"
         stroke-width="1.2"
         id="rect12" /><text
         x="34"
         y="221"
         font-family="sans-serif"
         font-size="4.4px"
         font-weight="800"
         text-anchor="start"
         dominant-baseline="hanging"
         id="text13">5) STOP RULES</text><text
         x="34.399414"
         y="224.2847"
         font-family="sans-serif"
         font-size="3.43995px"
         font-weight="400"
         dominant-baseline="hanging"
         id="text14"
         transform="scale(0.98838891,1.0117475)"
         style="stroke-width:1.01175"><tspan
           sodipodi:role="line"
           id="tspan69"
           x="34.399414"
           y="224.2847"
           style="font-weight:bold;stroke-width:1.01175">Stop and switch strategies if any are true:</tspan><tspan
           sodipodi:role="line"
           x="34.399414"
           y="228.58464"
           id="tspan71"
           style="stroke-width:1.01175">☐ I’ve made 3 changes without understanding cause/effect.</tspan><tspan
           sodipodi:role="line"
           x="34.399414"
           y="232.97095"
           id="tspan73"
           style="stroke-width:1.01175">☐ I’m repeating the same steps and learning nothing new.</tspan><tspan
           sodipodi:role="line"
           x="34.399414"
           y="237.35725"
           id="tspan75"
           style="stroke-width:1.01175">☐ My body alarm is high (shaking, nausea, tunnel vision, shutdown).</tspan><tspan
           sodipodi:role="line"
           x="34.399414"
           y="241.74356"
           id="tspan77"
           style="stroke-width:1.01175">☐ I’m arguing with myself / self-attacking / “I’m broken” thoughts.</tspan><tspan
           sodipodi:role="line"
           x="34.399414"
           y="246.12987"
           id="tspan79"
           style="font-weight:bold;stroke-width:1.01175">Switch to (choose ONE):</tspan><tspan
           sodipodi:role="line"
           x="34.399414"
           y="250.42978"
           id="tspan81"
           style="stroke-width:1.01175">☐ 5-minute break + water + return to Block 1</tspan><tspan
           sodipodi:role="line"
           x="34.399414"
           y="254.8161"
           id="tspan84"
           style="stroke-width:1.01175">☐ Park it: write “next step” and stop for today</tspan><tspan
           sodipodi:role="line"
           x="34.399414"
           y="259.20242"
           id="tspan87"
           style="font-weight:bold;stroke-width:1.01175">Stopping is a skill. Pausing protects future progress.</tspan></text><line
         x1="18"
         y1="47"
         x2="18"
         y2="261"
         stroke="#000000"
         stroke-width="1"
         id="line14" /><circle
         cx="18"
         cy="51"
         r="4.1999998"
         fill="#ffffff"
         stroke="#000000"
         stroke-width="1"
         id="circle14" /><text
         x="18"
         y="48.900002"
         font-family="sans-serif"
         font-size="4.2px"
         font-weight="800"
         text-anchor="middle"
         dominant-baseline="hanging"
         id="text15">1</text><polygon
         points="15.5,69 20.5,69 18,73 "
         fill="#000000"
         id="polygon15" /><circle
         cx="18"
         cy="90"
         r="4.1999998"
         fill="#ffffff"
         stroke="#000000"
         stroke-width="1"
         id="circle15" /><text
         x="18"
         y="87.900002"
         font-family="sans-serif"
         font-size="4.2px"
         font-weight="800"
         text-anchor="middle"
         dominant-baseline="hanging"
         id="text16">2</text><polygon
         points="15.5,116 20.5,116 18,120 "
         fill="#000000"
         id="polygon16" /><circle
         cx="18"
         cy="145"
         r="4.1999998"
         fill="#ffffff"
         stroke="#000000"
         stroke-width="1"
         id="circle16" /><text
         x="18"
         y="142.89999"
         font-family="sans-serif"
         font-size="4.2px"
         font-weight="800"
         text-anchor="middle"
         dominant-baseline="hanging"
         id="text17">3</text><polygon
         points="15.5,164 20.5,164 18,168 "
         fill="#000000"
         id="polygon17" /><circle
         cx="18"
         cy="186"
         r="4.1999998"
         fill="#ffffff"
         stroke="#000000"
         stroke-width="1"
         id="circle17" /><text
         x="18"
         y="183.89999"
         font-family="sans-serif"
         font-size="4.2px"
         font-weight="800"
         text-anchor="middle"
         dominant-baseline="hanging"
         id="text18">4</text><polygon
         points="15.5,205 20.5,205 18,209 "
         fill="#000000"
         id="polygon18" /><circle
         cx="18"
         cy="227"
         r="4.1999998"
         fill="#ffffff"
         stroke="#000000"
         stroke-width="1"
         id="circle18" /><text
         x="18"
         y="224.89999"
         font-family="sans-serif"
         font-size="4.2px"
         font-weight="800"
         text-anchor="middle"
         dominant-baseline="hanging"
         id="text19">5</text><text
         x="30"
         y="275"
         font-family="sans-serif"
         font-size="3px"
         font-weight="400"
         dominant-baseline="hanging"
         id="text20"><tspan
           sodipodi:role="line"
           id="tspan89"
           x="30"
           y="275">Bio-Debugger v0.1 • 2025-12-15• Page 1/3</tspan></text><text
         xml:space="preserve"
         transform="matrix(0.26458334,0,0,0.26458334,0.61392479,-0.11479575)"
         id="text21"
         style="font-size:10.6667px;text-align:start;writing-mode:lr-tb;direction:ltr;white-space:pre;shape-inside:url(#rect21);display:inline;fill:#000000" /><text
         xml:space="preserve"
         transform="matrix(0.26458334,0,0,0.26458334,0.61392479,-0.11479575)"
         id="text51"
         style="font-size:17.3333px;text-align:start;writing-mode:lr-tb;direction:ltr;white-space:pre;shape-inside:url(#rect51);display:inline;fill:#000000" /><g
         style="fill:none;stroke:currentColor;stroke-width:2;stroke-linecap:round;stroke-linejoin:round"
         id="g90"
         transform="matrix(0.90295181,0,0,0.90990239,175.12671,43.221291)"><path
           stroke="none"
           d="M 0,0 H 24 V 24 H 0 Z"
           fill="none"
           id="path1" /><path
           d="M 7,7 C 7,4.2385763 9.2385763,2 12,2 v 0 c 2.761424,0 5,2.2385763 5,5 v 10 c 0,2.761424 -2.238576,5 -5,5 v 0 C 9.2385763,22 7,19.761424 7,17 Z"
           id="path2"
           sodipodi:nodetypes="sssssssss"
           style="stroke-width:1.9273;stroke-dasharray:none" /><path
           d="m 12,7 m -1,0 a 1,1 0 1 0 2,0 1,1 0 1 0 -2,0"
           id="path3" /><path
           d="m 12,12 m -1,0 a 1,1 0 1 0 2,0 1,1 0 1 0 -2,0"
           id="path4" /><path
           d="m 12,17 m -1,0 a 1,1 0 1 0 2,0 1,1 0 1 0 -2,0"
           id="path5"
           style="fill:#008000" /><path
           d="m 12,17 m -1,0 a 1,1 0 1 0 2,0 1,1 0 1 0 -2,0"
           id="path90"
           style="fill:#008000" /><path
           d="m 12,17 m -1,0 a 1,1 0 1 0 2,0 1,1 0 1 0 -2,0"
           id="path91"
           style="fill:#008800;fill-opacity:1" /><path
           style="fill:#008800;fill-opacity:1;stroke-width:1.35941"
           d="m 653.37346,247.40441 c -5.80828,-3.26645 -4.81876,-12.10722 1.56934,-14.02114 2.50709,-0.75114 3.11581,-0.69684 5.30021,0.47276 3.40048,1.82072 5.22428,5.59477 4.20141,8.6941 -1.57549,4.77378 -6.99145,7.14852 -11.07096,4.85428 z"
           id="path92"
           transform="matrix(0.25224495,0,0,0.25224495,-153.75424,-43.70697)" /><path
           style="fill:#ebbb00;fill-opacity:1;stroke-width:1.35941"
           d="m 654.89244,227.78166 c -5.24148,-1.71122 -6.82497,-8.04276 -3.00789,-12.02693 2.24841,-2.34684 4.52561,-2.9458 7.48558,-1.96893 3.20411,1.05746 5.04071,3.62444 5.03659,7.03955 -0.006,5.2093 -4.59314,8.56295 -9.51428,6.95631 z"
           id="path96"
           transform="matrix(0.25224495,0,0,0.25224495,-153.75424,-43.70697)" /><path
           style="fill:#c81900;fill-opacity:1;stroke-width:1.35941"
           d="m 653.00249,207.26828 c -2.31339,-1.62036 -3.73223,-4.86956 -3.24966,-7.44187 0.89214,-4.75551 6.34423,-7.62114 10.45521,-5.49527 3.93885,2.03686 5.28522,6.11908 3.39002,10.27858 -1.5537,3.41 -7.42093,4.88216 -10.59557,2.65856 z"
           id="path97"
           transform="matrix(0.25224495,0,0,0.25224495,-153.75424,-43.70697)" /><text
           xml:space="preserve"
           transform="matrix(0.29302044,0,0,0.29078211,-193.26921,-47.627182)"
           id="text109"
           style="font-size:17.3333px;text-align:start;writing-mode:lr-tb;direction:ltr;white-space:pre;shape-inside:url(#rect109);display:inline;fill:#61b557;fill-opacity:1;stroke-width:2.18091;stroke-dasharray:none" /><text
           xml:space="preserve"
           style="font-size:5.05958px;text-align:start;writing-mode:lr-tb;direction:ltr;text-anchor:start;white-space:pre;inline-size:42.4899;display:inline;fill:#000000;fill-opacity:1;stroke-width:0;stroke-dasharray:none"
           x="11.215205"
           y="259.53006"
           id="text110"
           transform="scale(1.0038414,0.99617327)" /><text
           xml:space="preserve"
           style="font-size:3.11359px;text-align:start;writing-mode:lr-tb;direction:ltr;text-anchor:start;white-space:pre;inline-size:57.0583;display:inline;fill:#000000;fill-opacity:1;stroke-width:0;stroke-dasharray:none"
           x="-29.706057"
           y="253.06885"
           id="text111"
           transform="scale(1.0038414,0.99617329)"><tspan
             x="-29.706057"
             y="253.06885"
             id="tspan14">Thank you: Tabler Icons (License: MIT)</tspan></text><g
           style="fill:none;stroke:currentColor;stroke-width:2;stroke-linecap:round;stroke-linejoin:round"
           id="g113"
           transform="matrix(0.74344215,0,0,0.72882351,2.750342,194.61157)"><path
             stroke="none"
             d="M 0,0 H 24 V 24 H 0 Z"
             fill="none"
             id="path1-79" /><path
             d="m 4,10 a 2,2 0 1 0 4,0 2,2 0 0 0 -4,0"
             id="path2-2" /><path
             d="M 6,4 V 8"
             id="path3-0" /><path
             d="m 6,12 v 8"
             id="path4-2" /><path
             d="M 13.499,14.675 A 2,2 0 1 0 12,18"
             id="path5-3" /><path
             d="M 12,4 V 14"
             id="path6-7" /><path
             d="m 12,18 v 2"
             id="path7" /><path
             d="m 16,7 a 2,2 0 1 0 4,0 2,2 0 0 0 -4,0"
             id="path8" /><path
             d="M 18,4 V 5"
             id="path9" /><path
             d="m 18,9 v 3"
             id="path10" /><path
             d="m 19,19 m -3,0 a 3,3 0 1 0 6,0 3,3 0 1 0 -6,0"
             id="path11" /><path
             d="m 17,21 4,-4"
             id="path12" /></g><path
           style="fill:#c81900;fill-opacity:1;stroke-width:0;stroke-dasharray:none"
           d="m 714.00184,365.61434 v -4.25604 h 4.66138 4.66138 v 4.25604 4.25604 h -4.66138 -4.66138 z"
           id="path113"
           transform="matrix(0.29302044,0,0,0.29078211,-193.26921,-47.627182)" /><path
           style="fill:#c81900;fill-opacity:1;stroke-width:0;stroke-dasharray:none"
           d="m 714.57511,888.82017 c -3.23685,-0.63003 -4.06602,-1.74288 -5.18017,-3.73058 -0.9204,-1.64205 -1.07988,-2.71668 -1.07064,-4.4527 0.009,-1.65968 0.24914,-2.47236 1.00428,-4.01524 0.75516,-1.54296 1.93324,-2.92789 3.49545,-3.70506 4.9831,-2.47899 9.50421,-1.55238 11.95566,3.38161 2.2474,4.52329 1.44183,10.40714 -3.84735,12.27916 -1.36791,0.48415 -4.98283,0.51033 -6.35723,0.24281 z m 5.96556,-3.14717 c 1.32884,-0.73435 1.52984,-0.94934 2.2524,-2.34132 0.2925,-0.56347 0.1429,-1.38066 0.19389,-2.30563 -0.0409,-4.0103 -1.18937,-2.12065 -4.68338,0.95433 -7.99835,7.03913 2.00455,3.82113 2.23709,3.69262 z m -5.01056,-10.53957 c -1.36683,0.12082 -4.1906,2.03309 -4.22564,3.93036 -0.0408,2.20862 -0.74653,6.62629 4.8107,1.22241 3.96646,-3.857 5.64325,-5.70336 -0.58506,-5.15277 z"
           id="path116"
           transform="matrix(0.29302044,0,0,0.29078211,-193.26921,-47.627182)"
           sodipodi:nodetypes="sssssssssssssssss" /></g><text
         xml:space="preserve"
         style="font-size:4.5861px;text-align:start;writing-mode:lr-tb;direction:ltr;text-anchor:start;fill:#000000;fill-opacity:1;stroke-width:0.264583"
         x="203.11174"
         y="91.962364"
         id="text101"><tspan
           sodipodi:role="line"
           id="tspan101"
           style="stroke-width:0.264583;fill:#000000"></tspan></text><g
         style="fill:none;stroke:currentColor;stroke-width:2;stroke-linecap:round;stroke-linejoin:round"
         id="g101"
         transform="matrix(0.7187282,0,0,0.69092582,177.0885,83.515123)"><path
           stroke="none"
           d="M 0,0 H 24 V 24 H 0 Z"
           fill="none"
           id="path1-3" /><path
           d="m 21,12 a 9,9 0 1 0 -9,9"
           id="path2-6" /><path
           d="m 12,7 v 5 l 1,1"
           id="path3-7" /><path
           d="m 16,16 h 6 v 6 h -6 z"
           id="path4-5" /><path
           style="fill:#f02929;fill-opacity:1;stroke-width:1.35941"
           d="m 701.79378,386.75125 v -7.13689 h 7.13689 7.13689 v 7.13689 7.13688 h -7.13689 -7.13689 z"
           id="path101"
           transform="matrix(0.27306202,0,0,0.27306202,-174.55475,-86.654193)" /></g><g
         style="fill:none;stroke:currentColor;stroke-width:2;stroke-linecap:round;stroke-linejoin:round"
         id="g102"
         transform="matrix(0.76955298,0,0,0.72676415,176.76709,135.51684)"><path
           stroke="none"
           d="M 0,0 H 24 V 24 H 0 Z"
           fill="none"
           id="path1-7" /><path
           d="m 10,12 a 2,2 0 1 0 4,0 2,2 0 0 0 -4,0"
           id="path2-0" /><path
           d="M 15.03,17.478 A 8.797,8.797 0 0 1 12,18 C 8.4,18 5.4,16 3,12 5.4,8 8.4,6 12,6 c 3.6,0 6.6,2 9,6 a 20.48,20.48 0 0 1 -0.258,0.419"
           id="path3-9" /><path
           d="m 19,16 v 3"
           id="path4-3" /><path
           d="m 19,22 v 0.01"
           id="path5-6" /></g><path
         style="fill:#ebbb00;fill-opacity:1;stroke-width:0.0924133"
         d="m 191.07523,151.75547 c -0.1931,-0.21124 -0.12617,-0.51275 0.14582,-0.65685 0.39905,-0.21141 0.84762,0.40563 0.52619,0.72382 -0.16691,0.16524 -0.48908,0.13313 -0.67201,-0.067 z"
         id="path103" /><path
         style="fill:#ebbb00;fill-opacity:1;stroke-width:0.0541017"
         d="m 191.16377,149.57599 c -0.18429,-0.22812 -0.20914,-0.42735 -0.18935,-1.51855 0.0132,-0.72525 0.032,-0.92741 0.0991,-1.06293 0.14437,-0.29163 0.48311,-0.3036 0.62237,-0.022 0.0927,0.18754 0.14128,1.1426 0.0953,1.87436 -0.0311,0.49351 -0.0494,0.57351 -0.1673,0.72978 -0.16732,0.22171 -0.28054,0.22154 -0.46007,-6.5e-4 z"
         id="path104" /><g
         style="fill:none;stroke:currentColor;stroke-width:2;stroke-linecap:round;stroke-linejoin:round"
         id="g108"
         transform="matrix(0.59065834,0,0,0.60289027,179.51853,179.40919)"><path
           stroke="none"
           d="M 0,0 H 24 V 24 H 0 Z"
           fill="none"
           id="path1-0" /><path
           d="M 15,20 9,17 3,20 V 7 l 6,-3 6,3 6,-3 v 8.5"
           id="path2-62" /><path
           d="M 9,4 V 17"
           id="path3-6" /><path
           d="M 15,7 V 20"
           id="path4-1" /><path
           d="m 19,16 v 3"
           id="path5-8" /><path
           d="m 19,22 v 0.01"
           id="path6" /></g><path
         style="fill:#61b557;fill-opacity:1;stroke-width:0.266282;stroke-dasharray:none"
         d="m 190.62052,191.19828 c -0.0354,-0.0214 -0.0935,-0.0943 -0.12934,-0.16222 -0.0616,-0.11696 -0.065,-0.17228 -0.065,-1.05075 0,-1.00915 0.0163,-1.12971 0.16652,-1.23187 0.14399,-0.0979 0.25689,-0.0673 0.36908,0.10017 l 0.10346,0.15443 v 0.91002 c 0,0.50052 -0.0134,0.96245 -0.0297,1.02652 -0.0335,0.13166 -0.19812,0.29925 -0.28986,0.29517 -0.0335,-0.002 -0.0898,-0.0202 -0.12513,-0.0416 z"
         id="path108" /><path
         style="fill:#61b557;fill-opacity:1;stroke-width:0.200633;stroke-dasharray:none"
         d="m 190.56886,192.95256 c -0.18624,-0.17002 -0.14116,-0.48853 0.0808,-0.57109 0.17901,-0.0666 0.3581,0.0974 0.3581,0.32791 0,0.1416 -0.14707,0.29609 -0.28104,0.29521 -0.0562,-3.4e-4 -0.12676,-0.0237 -0.15788,-0.052 z"
         id="path109" /></g></g></svg>
